<svg width="483" height="643" viewBox="0 0 483 643" fill="none" xmlns="http://www.w3.org/2000/svg">
<path d="M222.667 0.800038C148.934 10.1334 91.7335 56.5334 69.4669 124.933C62.1335 147.2 61.0669 157.6 60.4002 211.333L59.6002 260.8L50.6669 262.267C28.9335 265.6 12.4002 279.2 3.86686 300.667L0.666857 308.667L0.266857 446C0.000189844 544.4 0.266857 585.867 1.46686 592.4C5.46686 616.933 23.6002 636 47.7335 641.2C52.8002 642.267 107.467 642.667 241.734 642.667C443.734 642.667 435.6 642.933 450.4 635.867C465.467 628.533 478.134 610.667 481.2 592.4C482.4 585.867 482.667 544.4 482.4 446L482 308.667L478.8 300.667C470.267 279.2 453.734 265.6 432 262.267L423.067 260.8L422.267 211.333C421.6 157.6 420.534 147.2 413.2 124.933C398.4 79.4667 366.4 41.7334 324.534 20.4C309.334 12.5334 291.734 6.40004 275.867 3.33337C264.934 1.20004 232 -0.399962 222.667 0.800038ZM270.4 43.2C315.467 52.8 353.067 83.8667 371.067 126.667C380.134 148 380.4 150.267 380.934 208.267L381.467 261.333H241.334H101.2L101.734 208.267C102.134 159.067 102.4 154.667 105.067 145.2C112.8 117.733 125.2 97.2 145.334 78.1334C167.867 56.9334 192.4 45.7334 227.334 40.8C234.8 39.7334 260.667 41.2 270.4 43.2ZM432 303.867C434.534 305.2 437.867 308.4 439.334 310.8C442 315.2 442 317.733 442 452C442 585.867 442 588.8 439.334 593.067C437.867 595.467 434.267 598.533 431.334 600C425.867 602.667 422.4 602.667 241.334 602.667C60.2669 602.667 56.8002 602.667 51.3335 600C48.4002 598.533 44.8002 595.467 43.3335 593.067C40.6669 588.8 40.6669 585.867 40.6669 452C40.6669 316.933 40.6669 315.333 43.3335 310.667C44.9335 308.133 48.1335 304.933 50.6669 303.733C55.0669 301.467 66.9335 301.333 241.334 301.333C420.267 301.333 427.6 301.467 432 303.867Z" fill="#F8F8F8"/>
<path d="M225.333 363.733C220.533 364.933 214 367.6 210.667 369.6C184.267 385.067 173.867 419.333 186.933 447.067C192.667 459.067 202.267 469.067 213.2 474.267L221.2 478L221.333 502.667C221.333 523.467 221.733 528.133 223.733 532C230.267 545.2 252.4 545.2 258.933 532C260.933 528.133 261.333 523.467 261.333 502.667L261.467 478L269.467 474.267C286.933 466 299.6 446.933 300.933 427.067C303.067 396 284.8 370.267 255.867 363.333C244.933 360.8 236.133 360.933 225.333 363.733ZM253.6 405.467C264.667 413.333 263.2 433.6 251.2 439.333C245.733 441.867 236.933 441.867 231.467 439.333C220.267 434 218 414.8 227.733 406.267C233.867 400.667 246.4 400.4 253.6 405.467Z" fill="#F8F8F8"/>
</svg>
