<svg width="106" height="59" viewBox="0 0 106 59" fill="none" xmlns="http://www.w3.org/2000/svg">
<path d="M54.8903 0.0292969C54.951 0.151084 54.951 0.151084 55.0129 0.275331C54.9093 0.537834 54.7949 0.796072 54.6759 1.05188C53.517 3.68125 53.6863 6.47803 54.6936 9.1351C55.0663 10.0563 55.5808 10.8824 56.1156 11.7159C58.1362 14.8789 59.6408 18.0871 58.981 21.9691C58.6972 23.1428 58.1552 24.1919 57.5859 25.2478C58.4811 25.2478 59.2604 24.5728 59.8985 23.9715C61.3497 22.4101 61.6784 20.2756 61.6827 18.2282C61.6833 18.068 61.6839 17.9079 61.6844 17.7429C61.6746 16.2735 61.4204 14.8792 61.0588 13.4578C61.0165 13.1921 61.0165 13.1921 61.139 12.8231C63.6475 16.4826 65.412 20.2659 64.6287 24.8047C64.2179 26.8969 63.1496 28.7085 61.7517 30.2915C61.6779 30.3759 61.6041 30.4603 61.5282 30.5472C59.8254 32.3718 57.4631 33.6561 55.1354 34.4741C55.0545 34.4741 54.9737 34.4741 54.8903 34.4741C55.0652 34.1059 55.2665 33.7578 55.4744 33.4075C56.1537 32.2544 56.8785 30.9558 56.8584 29.5842C56.8573 29.4859 56.8562 29.3876 56.855 29.2863C56.8529 29.1749 56.8529 29.1749 56.8507 29.0614C56.791 29.1135 56.7313 29.1657 56.6698 29.2195C55.4643 30.2208 53.461 31.3987 51.8272 31.3987C51.9741 30.6545 52.1781 29.959 52.43 29.2443C53.2156 27.0106 53.7487 24.7241 54.2777 22.4184C54.3154 22.2549 54.3531 22.0913 54.3908 21.9277C54.4758 21.5582 54.5607 21.1888 54.6453 20.8192C54.5644 20.8192 54.4836 20.8192 54.4002 20.8192C54.3672 20.9102 54.3342 21.0013 54.3002 21.095C53.6398 22.64 52.1062 23.805 50.7858 24.7635C49.1923 25.9207 47.3854 27.2564 46.8478 29.2733C46.6475 30.5477 46.8814 31.8539 47.0488 33.1209C44.2421 31.3952 41.7824 28.6986 40.9303 25.4477C40.0662 20.6188 42.2632 16.2762 44.3533 12.085C44.6568 12.542 44.684 12.9556 44.7434 13.4877C44.7557 13.5901 44.7681 13.6926 44.7809 13.7982C44.8205 14.1266 44.8589 14.4551 44.897 14.7837C45.1095 17.6413 45.1095 17.6413 46.5128 20.0196C47.0915 20.2778 47.6496 20.3092 48.2741 20.2041C48.591 20.0293 48.7343 19.8879 48.9125 19.5722C49.4064 17.7729 48.9014 15.8478 48.5191 14.0763C48.2145 12.6594 47.9348 11.2963 47.9448 9.83992C47.9455 9.72467 47.9462 9.60941 47.9469 9.49066C47.9901 8.27829 48.2889 7.1164 48.8484 6.04177C48.8917 5.95772 48.9349 5.87367 48.9795 5.78708C49.3631 5.0635 49.7993 4.44394 50.357 3.84283C50.4226 3.77121 50.4883 3.6996 50.5559 3.62581C51.8629 2.21383 53.2971 1.09572 54.8903 0.0292969Z" fill="#EA2404"/>
<path d="M55.0134 37.6726C56.6307 37.6726 58.248 37.6726 59.9143 37.6726C59.9402 39.9965 59.8758 42.3003 59.7564 44.6207C59.6771 46.2014 59.6543 47.7765 59.6693 49.3592C60.084 48.3294 60.4975 47.2991 60.9098 46.2684C60.9404 46.192 60.9709 46.1156 61.0024 46.0369C62.0314 43.4638 63.0199 40.8786 63.9515 38.2683C64.0801 37.9186 64.0801 37.9186 64.2026 37.6726C65.5773 37.6726 66.9521 37.6726 68.3684 37.6726C68.3684 41.6103 68.3684 45.5481 68.3684 49.6052C69.2606 47.3657 70.1443 45.1303 70.9797 42.87C72.0278 40.0417 72.0278 40.0417 72.5318 38.7317C72.5855 38.5913 72.5855 38.5913 72.6403 38.4481C72.8872 37.8102 72.8872 37.8102 73.0243 37.6726C73.3777 37.6616 73.7282 37.6584 74.0816 37.6605C74.2404 37.6608 74.2404 37.6608 74.4024 37.6611C74.742 37.6618 75.0816 37.6633 75.4212 37.6649C75.6508 37.6655 75.8805 37.666 76.1102 37.6665C76.6744 37.6679 77.2386 37.67 77.8028 37.6726C77.2868 38.9676 76.7709 40.2626 76.2549 41.5577C76.2005 41.6943 76.1461 41.8309 76.09 41.9717C75.9732 42.2648 75.8564 42.5579 75.7395 42.8511C75.3872 43.7348 75.0356 44.6188 74.6849 45.5032C73.486 48.5265 72.2746 51.5431 71.0178 54.5426C70.7071 55.2846 70.3994 56.0279 70.0914 56.771C69.845 57.3647 69.845 57.3647 69.5937 57.9704C67.9359 57.9704 66.2782 57.9704 64.5702 57.9704C64.5298 54.5198 64.4893 51.0691 64.4477 47.5139C64.1646 48.2802 63.8816 49.0464 63.59 49.8359C62.5845 52.5534 61.5579 55.2625 60.5269 57.9704C58.7883 57.9704 57.0497 57.9704 55.2584 57.9704C55.2257 56.3229 55.1937 54.6754 55.1626 53.0279C55.1481 52.2621 55.1333 51.4962 55.1181 50.7304C55.0313 46.3771 54.9981 42.0267 55.0134 37.6726Z" fill="#EE2904"/>
<path d="M79.1499 37.6725C83.2336 37.6725 87.3173 37.6725 91.5248 37.6725C91.3288 38.1643 91.125 38.5794 90.8624 39.0343C90.8225 39.1036 90.7826 39.1728 90.7416 39.2442C90.6577 39.3896 90.5737 39.535 90.4895 39.6802C90.3608 39.9021 90.2327 40.1244 90.1047 40.3467C89.4808 41.4273 89.4808 41.4273 89.1968 41.8551C88.9441 41.8995 88.9441 41.8995 88.6291 41.897C88.5114 41.8969 88.3937 41.8969 88.2724 41.8969C88.145 41.895 88.0176 41.8931 87.8864 41.8911C87.7562 41.8906 87.626 41.8901 87.4919 41.8895C87.0748 41.8875 86.6579 41.8828 86.2409 41.8781C85.9587 41.8763 85.6765 41.8746 85.3943 41.8731C84.7014 41.869 84.0085 41.8628 83.3157 41.8551C83.1993 42.5536 83.083 43.252 82.9706 43.9512C82.9554 44.0452 82.9401 44.1392 82.9244 44.2361C82.8935 44.427 82.8629 44.618 82.8325 44.8089C82.7168 45.5179 82.7168 45.5179 82.5805 45.7916C84.5617 45.7916 86.5429 45.7916 88.5842 45.7916C88.1137 46.7363 87.6396 47.6683 87.1292 48.5903C86.8184 49.1535 86.8184 49.1535 86.5013 49.7282C84.9648 49.7282 83.4284 49.7282 81.8454 49.7282C81.7847 50.4589 81.7847 50.4589 81.7229 51.2044C81.6665 51.6011 81.6074 51.994 81.5391 52.3884C81.5231 52.4853 81.5072 52.5822 81.4907 52.682C81.3717 53.3857 81.3717 53.3857 81.2328 53.6647C83.6183 53.6647 86.0038 53.6647 88.4617 53.6647C88.3631 54.3295 88.2645 54.9942 88.163 55.6791C88.1321 55.8888 88.1013 56.0985 88.0695 56.3146C88.0447 56.4805 88.0199 56.6464 87.995 56.8122C87.9824 56.8986 87.9698 56.985 87.9568 57.074C87.863 57.6962 87.863 57.6962 87.7265 57.9703C83.7237 57.9703 79.7208 57.9703 75.5967 57.9703C75.7388 57.0429 75.8808 56.1174 76.0413 55.1933C76.0597 55.0868 76.0781 54.9802 76.0971 54.8704C76.1573 54.5223 76.2177 54.1742 76.2782 53.8262C76.2993 53.7045 76.3204 53.5829 76.3422 53.4575C76.7932 50.8582 77.2584 48.2614 77.726 45.665C77.9332 44.5145 78.1394 43.3638 78.3451 42.2129C78.4114 41.842 78.4778 41.4711 78.5442 41.1002C78.7482 39.958 78.949 38.8153 79.1499 37.6725Z" fill="#EF2A03"/>
<path d="M3.06309 18.4819C7.1468 18.4819 11.2305 18.4819 15.438 18.4819C14.8254 22.4185 14.8254 22.4185 14.7028 22.7875C12.2364 22.7875 9.77003 22.7875 7.22889 22.7875C7.18846 23.3153 7.14803 23.843 7.10637 24.3868C6.94464 25.3611 6.78291 26.3354 6.61628 27.3392C8.67835 27.3392 10.7404 27.3392 12.865 27.3392C12.6628 28.6788 12.4607 30.0185 12.2524 31.3987C10.1499 31.3987 8.04735 31.3987 5.88113 31.3987C5.8407 31.9265 5.80027 32.4542 5.75861 32.998C5.68884 33.4915 5.61493 33.9815 5.53223 34.4727C5.51065 34.6043 5.48906 34.7358 5.46683 34.8713C5.39881 35.2849 5.32985 35.6984 5.26086 36.1118C5.21413 36.395 5.16747 36.6781 5.12087 36.9612C5.00755 37.6495 4.89296 38.3377 4.77842 39.0258C3.20154 39.0258 1.62466 39.0258 0 39.0258C0.137527 37.5069 0.137527 37.5069 0.242654 36.8653C0.266059 36.7197 0.289464 36.574 0.313578 36.4239C0.338977 36.2676 0.364376 36.1114 0.390544 35.9504C0.57067 34.8252 0.743442 33.6996 0.895954 32.5703C0.909497 32.47 0.923041 32.3698 0.936995 32.2665C0.965084 32.0582 0.993162 31.85 1.02123 31.6417C1.45142 28.4559 1.96692 25.2841 2.48584 22.1118C2.68336 20.9026 2.87273 19.6924 3.06309 18.4819Z" fill="#F9F0E5"/>
<path d="M23.7689 18.4819C28.2165 18.4819 32.6641 18.4819 37.2465 18.4819C37.1687 19.4185 37.0831 20.332 36.9402 21.2575C36.9242 21.3651 36.9083 21.4727 36.8918 21.5836C36.8285 22.0013 36.7673 22.3856 36.6338 22.7875C35.1783 22.7875 33.7227 22.7875 32.223 22.7875C32.1826 23.3153 32.1421 23.843 32.1005 24.3868C32.0491 24.7679 31.9946 25.1448 31.931 25.5237C31.9145 25.626 31.8979 25.7283 31.8809 25.8337C31.8454 26.0529 31.8096 26.272 31.7736 26.4911C31.6763 27.0832 31.5811 27.6756 31.4859 28.2681C31.4661 28.3915 31.4463 28.5149 31.4258 28.6421C31.1531 30.348 30.9056 32.0578 30.6574 33.7675C30.64 33.8864 30.6226 34.0053 30.6047 34.1278C30.5722 34.3506 30.5399 34.5734 30.5079 34.7962C30.4862 34.9439 30.4862 34.9439 30.4642 35.0946C30.4518 35.1801 30.4394 35.2657 30.4267 35.3539C30.3851 35.5813 30.3851 35.5813 30.2626 35.9504C28.7262 35.9504 27.1897 35.9504 25.6067 35.9504C26.0531 32.858 26.5124 29.7683 26.9892 26.6805C27.0196 26.4832 27.0196 26.4832 27.0506 26.2819C27.0882 26.0384 27.1259 25.7949 27.1636 25.5514C27.3057 24.631 27.4359 23.7098 27.5671 22.7875C26.1115 22.7875 24.6559 22.7875 23.1562 22.7875C23.2118 22.3283 23.2674 21.8691 23.3247 21.3959C23.3502 21.1832 23.3502 21.1832 23.3761 20.9662C23.3904 20.8497 23.4047 20.7331 23.4195 20.6131C23.4336 20.4965 23.4477 20.3799 23.4623 20.2598C23.5485 19.6646 23.6617 19.0737 23.7689 18.4819Z" fill="#F8F0E5"/>
<path d="M17.3981 18.4819C18.9749 18.4819 20.5518 18.4819 22.1765 18.4819C22.0387 20.2807 22.0387 20.2807 21.9187 21.0572C21.9057 21.1425 21.8927 21.2277 21.8793 21.3156C21.8369 21.5928 21.7937 21.8699 21.7505 22.147C21.72 22.3459 21.6895 22.5448 21.6591 22.7437C21.5948 23.164 21.5302 23.5842 21.4653 24.0044C21.2959 25.1012 21.1287 26.1983 20.9618 27.2954C20.9452 27.4041 20.9287 27.5127 20.9116 27.6246C20.6245 29.5111 20.3522 31.3994 20.0936 33.2901C19.8312 35.2068 19.5527 37.1173 19.2359 39.0258C17.6186 39.0258 16.0013 39.0258 14.335 39.0258C14.7186 36.2783 15.1227 33.5343 15.5372 30.7913C15.5569 30.6609 15.5569 30.6609 15.5771 30.5278C15.9958 27.7571 16.4183 24.987 16.8452 22.2177C16.8642 22.0937 16.8833 21.9698 16.903 21.8421C16.9376 21.6172 16.9723 21.3922 17.0071 21.1673C17.1446 20.273 17.2706 19.3779 17.3981 18.4819Z" fill="#F8F0E5"/>
<path d="M45.7968 37.6312C45.9308 37.6304 46.0649 37.6296 46.203 37.6287C46.4847 37.6275 46.7664 37.6269 47.0482 37.6269C47.4765 37.6264 47.9046 37.6219 48.3329 37.6173C48.6081 37.6166 48.8833 37.6161 49.1585 37.6158C49.3483 37.6132 49.3483 37.6132 49.5419 37.6105C50.5963 37.6171 51.502 37.8379 52.302 38.5567C53.1777 39.5461 53.2517 40.5222 53.1964 41.8082C53.1255 42.7794 52.9199 43.7372 52.7385 44.6922C52.6937 44.935 52.6491 45.1778 52.6046 45.4206C52.5137 45.9165 52.4219 46.4122 52.3295 46.9078C52.2009 47.6003 52.0775 48.2935 51.956 48.9872C51.9183 49.2014 51.8807 49.4155 51.8431 49.6297C51.7902 49.9308 51.7373 50.232 51.6848 50.5332C51.5032 51.5717 51.3079 52.6058 51.084 53.6359C51.0644 53.7274 51.0448 53.8188 51.0246 53.913C50.7361 55.2111 50.1897 56.1676 49.1317 56.9862C48.2288 57.5433 47.3335 57.981 46.2622 57.9922C46.1292 57.9937 45.9962 57.9953 45.8592 57.9969C45.6442 57.9983 45.6442 57.9983 45.4249 57.9997C45.2023 58.0012 45.2023 58.0012 44.9752 58.0027C44.6608 58.0044 44.3463 58.0057 44.0319 58.0067C43.554 58.0088 43.0763 58.0142 42.5985 58.0196C42.2924 58.0209 41.9863 58.0219 41.6803 58.0228C41.4679 58.026 41.4679 58.026 41.2512 58.0293C40.1864 58.0265 39.1596 57.858 38.296 57.1861C37.4676 56.3341 37.2052 55.5507 37.2141 54.385C37.286 53.3471 37.5238 52.3301 37.7294 51.3121C37.8314 50.7971 37.9324 50.2819 38.0333 49.7667C38.0594 49.6339 38.0855 49.5011 38.1124 49.3644C38.3024 48.3907 38.478 47.4151 38.6469 46.4375C38.6709 46.2992 38.6949 46.161 38.7197 46.0185C38.8134 45.4784 38.9071 44.9383 38.9977 44.3977C39.3822 42.1046 39.7613 40.0485 41.7415 38.5952C42.9964 37.7793 44.3304 37.6344 45.7968 37.6312Z" fill="#ED2804"/>
<path d="M46.3903 41.8013C46.5305 41.8004 46.6708 41.7996 46.8153 41.7987C47.8328 41.8065 47.8328 41.8065 48.1337 42.0051C48.708 42.9016 47.9009 45.1584 47.7074 46.1761C47.6857 46.2911 47.6639 46.4062 47.6416 46.5247C47.5298 47.1164 47.4171 47.708 47.3035 48.2994C47.2181 48.7443 47.1339 49.1894 47.0512 49.6348C46.9602 50.1244 46.867 50.6136 46.7718 51.1025C46.7372 51.2818 46.7035 51.4612 46.6705 51.6408C46.6248 51.8889 46.5761 52.1363 46.5267 52.3837C46.5002 52.522 46.4737 52.6604 46.4464 52.8029C46.2799 53.267 46.0885 53.4864 45.7011 53.7878C45.3562 53.8635 45.3562 53.8635 44.9841 53.8608C44.8495 53.8605 44.715 53.8602 44.5763 53.8599C44.437 53.8564 44.2977 53.8529 44.1542 53.8493C44.014 53.8496 43.8737 53.8499 43.7292 53.8503C42.7027 53.8382 42.7027 53.8382 42.4335 53.6286C42.2704 53.4188 42.2704 53.4188 42.2887 52.9617C42.3209 52.7446 42.356 52.5279 42.3929 52.3116C42.415 52.174 42.4371 52.0365 42.4599 51.8947C42.5416 51.3955 42.6272 50.897 42.7136 50.3986C42.7455 50.2134 42.7774 50.0282 42.8093 49.843C42.876 49.4562 42.943 49.0694 43.0102 48.6826C43.0955 48.191 43.18 47.6992 43.2643 47.2075C43.3299 46.8252 43.396 46.4431 43.4623 46.0609C43.4937 45.8799 43.5248 45.6988 43.5558 45.5176C44.0556 42.5994 44.0556 42.5994 44.4634 42.0123C45.092 41.7523 45.7181 41.7895 46.3903 41.8013Z" fill="#141414"/>
<path d="M93.2412 37.6725C94.5822 37.6639 95.9231 37.6574 97.2641 37.6534C97.8868 37.6515 98.5095 37.6489 99.1322 37.6447C99.7336 37.6406 100.335 37.6384 100.936 37.6375C101.165 37.6368 101.394 37.6355 101.623 37.6335C101.945 37.6308 102.267 37.6304 102.588 37.6306C102.682 37.6293 102.776 37.628 102.873 37.6266C103.626 37.6309 104.286 37.7844 104.906 38.24C105.715 39.0998 106.013 39.8582 106 41.0289C105.974 41.5665 105.884 42.0868 105.786 42.6153C105.756 42.7876 105.756 42.7876 105.724 42.9635C105.681 43.2049 105.636 43.4461 105.592 43.6873C105.525 44.0519 105.46 44.4169 105.395 44.782C104.999 46.978 104.658 48.8006 102.747 50.1549C102.462 50.3243 102.258 50.3962 101.94 50.4663C101.963 50.5531 101.986 50.6398 102.01 50.7292C102.227 51.5471 102.444 52.3653 102.659 53.1835C102.77 53.6042 102.881 54.0248 102.993 54.4453C103.121 54.9288 103.249 55.4126 103.376 55.8964C103.416 56.0472 103.457 56.198 103.498 56.3534C103.535 56.4938 103.572 56.6341 103.61 56.7787C103.642 56.9022 103.675 57.0257 103.708 57.1529C103.778 57.4783 103.778 57.4783 103.778 57.9703C102.201 57.9703 100.624 57.9703 98.9998 57.9703C98.8551 57.4131 98.7105 56.8559 98.5614 56.2817C98.4687 55.9252 98.3761 55.5686 98.2833 55.2121C98.1367 54.6482 97.9901 54.0844 97.8438 53.5205C97.7256 53.065 97.6072 52.6095 97.4887 52.1541C97.4439 51.9818 97.3991 51.8095 97.3545 51.6372C97.1262 50.7564 96.8936 49.877 96.6481 49.001C96.6085 48.8598 96.569 48.7187 96.5283 48.5733C96.4577 48.2641 96.4577 48.2641 96.3043 48.129C95.7029 51.405 95.1257 54.6829 94.589 57.9703C93.0121 57.9703 91.4352 57.9703 89.8105 57.9703C90.0923 55.566 90.0923 55.566 90.2595 54.6273C90.2782 54.5195 90.2969 54.4117 90.3162 54.3007C90.3768 53.9528 90.4383 53.605 90.4997 53.2573C90.5435 53.0072 90.5872 52.7571 90.6309 52.507C90.9362 50.7646 91.2515 49.0241 91.5694 47.2839C92.1535 44.0849 92.6954 40.8783 93.2412 37.6725Z" fill="#EF2B03"/>
<path d="M97.2845 41.8551C97.7848 41.8479 98.2851 41.8436 98.7854 41.8397C98.9984 41.8366 98.9984 41.8366 99.2157 41.8335C99.3523 41.8327 99.4889 41.8319 99.6297 41.8311C99.8183 41.8291 99.8183 41.8291 100.011 41.8272C100.355 41.8557 100.554 41.9052 100.838 42.1011C101.104 42.934 100.846 43.7942 100.685 44.6307C100.644 44.8532 100.644 44.8532 100.604 45.0802C100.281 46.7957 100.281 46.7957 99.7569 47.1895C99.4185 47.2888 99.1246 47.2955 98.772 47.2919C98.6354 47.2911 98.4988 47.2903 98.358 47.2895C98.145 47.2864 98.145 47.2864 97.9277 47.2832C97.7839 47.2821 97.64 47.281 97.4917 47.2799C97.1367 47.277 96.7818 47.2729 96.4268 47.2679C96.4989 46.094 96.7091 44.9539 96.9246 43.8003C96.9595 43.6109 96.9943 43.4215 97.0292 43.2321C97.1136 42.773 97.1988 42.314 97.2845 41.8551Z" fill="#141414"/>
<path d="M25.2402 37.6726C26.6291 37.6611 28.018 37.6524 29.4069 37.6471C30.0519 37.6445 30.6968 37.641 31.3418 37.6354C31.9646 37.6301 32.5874 37.6271 33.2103 37.6259C33.4475 37.625 33.6847 37.6232 33.9219 37.6205C34.255 37.6169 34.5881 37.6165 34.9213 37.6167C35.0186 37.6149 35.1159 37.6132 35.2161 37.6113C36.0123 37.6172 36.6444 37.8544 37.2504 38.3794C37.3324 38.4824 37.3324 38.4824 37.416 38.5875C37.5008 38.69 37.5008 38.69 37.5874 38.7946C37.9678 39.3798 38.0291 39.9323 38.0267 40.6187C38.0264 40.7149 38.0261 40.8111 38.0258 40.9102C38.0038 42.0248 37.8055 43.1033 37.5908 44.1944C37.5229 44.5399 37.4582 44.8859 37.394 45.2321C36.7371 48.7127 36.7371 48.7127 35.7773 49.7282C35.6992 49.8129 35.6212 49.8976 35.5408 49.9848C34.3476 51.1653 32.8486 51.4727 31.2295 51.4625C31.1245 51.4623 31.0195 51.4621 30.9113 51.462C30.578 51.4613 30.2447 51.4597 29.9114 51.4582C29.6846 51.4576 29.4577 51.457 29.2309 51.4565C28.6766 51.4551 28.1224 51.453 27.5682 51.4505C27.5643 51.5291 27.5604 51.6078 27.5565 51.6888C27.4832 52.8147 27.2851 53.9083 27.0767 55.015C27.0162 55.3363 26.9569 55.6578 26.8977 55.9793C26.8596 56.1844 26.8215 56.3895 26.7833 56.5946C26.7655 56.6903 26.7478 56.7861 26.7295 56.8847C26.6593 57.2563 26.5848 57.6111 26.4655 57.9704C24.929 57.9704 23.3926 57.9704 21.8096 57.9704C21.885 57.0621 21.9642 56.197 22.124 55.3068C22.1429 55.1985 22.1618 55.0902 22.1813 54.9786C22.2431 54.6251 22.3058 54.2718 22.3686 53.9185C22.4129 53.666 22.4572 53.4134 22.5015 53.1608C22.6375 52.3855 22.7747 51.6104 22.9123 50.8354C22.9328 50.7195 22.9534 50.6036 22.9746 50.4842C23.3099 48.5932 23.3099 48.5932 23.446 47.8284C23.7096 46.3474 23.9681 44.8655 24.2222 43.3828C24.2362 43.3011 24.2502 43.2194 24.2647 43.1353C24.4173 42.2447 24.5694 41.3541 24.7211 40.4634C24.7466 40.3141 24.7721 40.1648 24.7984 40.011C24.8464 39.7296 24.8943 39.4483 24.942 39.1669C24.9634 39.0417 24.9848 38.9166 25.0069 38.7876C25.0254 38.6786 25.044 38.5697 25.0631 38.4574C25.1125 38.1924 25.1718 37.9332 25.2402 37.6726Z" fill="#EF2903"/>
<path d="M29.2835 41.8551C29.8272 41.8444 30.3709 41.8379 30.9146 41.8321C31.0693 41.829 31.224 41.8259 31.3834 41.8227C31.5315 41.8215 31.6795 41.8203 31.8321 41.8191C31.9688 41.8172 32.1054 41.8152 32.2462 41.8132C32.5916 41.8551 32.5916 41.8551 32.8242 42.0046C33.0082 42.3039 32.9811 42.4732 32.9382 42.8205C32.9236 42.9409 32.9089 43.0613 32.8939 43.1853C32.7941 43.8695 32.6854 44.5503 32.561 45.2304C32.5375 45.3727 32.514 45.5151 32.4897 45.6617C32.4646 45.7983 32.4395 45.9349 32.4136 46.0757C32.3919 46.1985 32.3703 46.3213 32.3479 46.4478C32.1848 46.8799 32.0045 47.0318 31.6115 47.2679C31.2495 47.3238 31.2495 47.3238 30.8548 47.316C30.713 47.3144 30.5713 47.3128 30.4252 47.3111C30.2784 47.307 30.1316 47.3029 29.9804 47.2987C29.7566 47.2953 29.7566 47.2953 29.5283 47.2919C29.1607 47.2861 28.7933 47.278 28.4258 47.2679C28.6229 45.4479 28.9529 43.6549 29.2835 41.8551Z" fill="#141414"/>
</svg>
